<svg width="150" height="150" viewBox="0 0 150 150" fill="none" xmlns="http://www.w3.org/2000/svg">
<rect width="150" height="150" fill="black"/>
<path fill-rule="evenodd" clip-rule="evenodd" d="M10.1667 22.673C20.5001 22.673 30.8334 22.673 41.1667 22.673C51.4451 43.2296 61.7234 63.7846 72.0001 84.3413V127.396C64.8317 127.396 57.6634 127.396 50.4951 127.396C48.6001 123.661 46.7051 119.926 44.8101 116.191C44.8101 107.005 44.8101 97.8163 44.8101 88.6296C40.1501 88.6296 35.4884 88.6296 30.8284 88.6296C26.2301 79.5663 21.6318 70.503 17.0334 61.4396C26.2918 61.4396 35.5518 61.4396 44.8101 61.4396C44.8101 57.5813 44.8101 53.723 44.8101 49.8646C33.5934 49.8646 22.3768 49.8646 11.1601 49.8646C10.8284 49.2096 10.4984 48.5563 10.1667 47.903C10.1667 39.493 10.1667 31.083 10.1667 22.673ZM108.77 22.673C119.103 22.673 129.437 22.673 139.772 22.673C139.772 31.083 139.772 39.493 139.772 47.903C139.44 48.5563 139.108 49.2096 138.777 49.8646C127.56 49.8646 116.343 49.8646 105.127 49.8646V61.4396C114.385 61.4396 123.645 61.4396 132.903 61.4396C128.305 70.503 123.707 79.5663 119.11 88.6296C114.448 88.6296 109.787 88.6296 105.127 88.6296V116.191C103.232 119.926 101.337 123.661 99.4418 127.396C92.2734 127.396 85.1051 127.396 77.9368 127.396C77.9368 113.045 77.9368 98.693 77.9368 84.3413C88.2151 63.7846 98.4918 43.2296 108.77 22.673ZM101.68 24.983C99.8984 28.5463 98.1034 32.1013 96.3384 35.673C94.6468 39.0913 92.9951 42.528 91.2917 45.9413C89.4384 49.653 87.5167 53.3313 85.6534 57.038C82.0751 64.153 78.5301 71.283 74.9684 78.4063C71.4301 71.3296 67.9101 64.2446 64.3534 57.178C62.5034 53.4996 60.5918 49.853 58.7518 46.1696C57.0568 42.778 55.4151 39.358 53.7384 35.9546C51.9884 32.4046 50.2018 28.8713 48.4318 25.3313C48.5534 25.373 48.6768 25.413 48.8001 25.453C49.8368 25.7813 50.8984 26.0196 51.9734 26.1813C52.7334 26.2963 53.5018 26.3563 54.2634 26.458C55.3084 26.598 56.3484 26.7779 57.3851 26.9779C61.8951 27.8479 66.2734 29.278 70.7568 30.2596C72.2601 30.5896 73.7751 30.913 75.3168 30.998C77.7584 31.133 80.2084 30.9096 82.6151 30.4996C85.3717 30.0313 88.0851 29.3246 90.7534 28.4963C92.3301 28.008 93.8784 27.433 95.4501 26.9296C96.3484 26.6413 97.2634 26.4046 98.1684 26.1296C99.3468 25.7713 100.513 25.3763 101.68 24.983Z" fill="white"/>
<path fill-rule="evenodd" clip-rule="evenodd" d="M53.2988 84.8145C60.7427 87.2444 68.1873 89.6744 75.6312 92.1044C70.4271 96.1258 65.2231 100.146 60.019 104.167C57.7784 97.7165 55.5386 91.2658 53.2988 84.8145Z" fill="black"/>
<path fill-rule="evenodd" clip-rule="evenodd" d="M96.6411 84.8145C89.1973 87.2444 81.7526 89.6744 74.3088 92.1044C79.5128 96.1258 84.7169 100.146 89.9209 104.167C92.1615 97.7165 94.4013 91.2658 96.6411 84.8145Z" fill="black"/>
<path fill-rule="evenodd" clip-rule="evenodd" d="M74.9674 78.6572C71.2124 71.4651 67.4691 64.2666 63.7008 57.0809C61.9874 53.816 60.2291 50.5718 58.5224 47.3036C56.8791 44.1568 55.2808 40.9908 53.6508 37.8391C51.0308 32.7742 48.3724 27.7284 45.7324 22.673H51.1708C52.5308 22.673 53.8991 22.6235 55.2508 22.8007C56.4058 22.9523 57.5391 23.2299 58.6508 23.5666C61.6758 24.4874 64.5224 25.8582 67.4891 26.9289C69.6674 27.714 71.9441 28.3667 74.2874 28.4098C76.6141 28.4529 78.9008 27.9039 81.0874 27.1906C84.5291 26.0688 87.7958 24.4969 91.2858 23.5044C92.3991 23.1884 93.5324 22.9315 94.6858 22.7911C96.0374 22.6267 97.4058 22.673 98.7641 22.673H104.204C101.564 27.7284 98.9075 32.7758 96.2858 37.8391C94.6558 40.9876 93.0557 44.1472 91.4141 47.2893C89.7041 50.5622 87.9491 53.8112 86.2358 57.0809C82.4708 64.2682 78.7241 71.4651 74.9674 78.6572Z" fill="white"/>
</svg>
